<?xml version="1.0" encoding="UTF-8" standalone="no"?>
<svg
   xmlns:dc="http://purl.org/dc/elements/1.1/"
   xmlns:cc="http://creativecommons.org/ns#"
   xmlns:rdf="http://www.w3.org/1999/02/22-rdf-syntax-ns#"
   xmlns:svg="http://www.w3.org/2000/svg"
   xmlns="http://www.w3.org/2000/svg"
   xmlns:sodipodi="http://sodipodi.sourceforge.net/DTD/sodipodi-0.dtd"
   xmlns:inkscape="http://www.inkscape.org/namespaces/inkscape"
   version="1.0"
   width="290.85999"
   height="427.39001"
   id="svg2"
   sodipodi:docname="numbolics.svg"
   inkscape:version="1.0.1 (3bc2e813f5, 2020-09-07)">
  <metadata
     id="metadata33">
    <rdf:RDF>
      <cc:Work
         rdf:about="">
        <dc:format>image/svg+xml</dc:format>
        <dc:type
           rdf:resource="http://purl.org/dc/dcmitype/StillImage" />
        <dc:title></dc:title>
      </cc:Work>
    </rdf:RDF>
  </metadata>
  <sodipodi:namedview
     pagecolor="#ffffff"
     bordercolor="#666666"
     borderopacity="1"
     objecttolerance="10"
     gridtolerance="10"
     guidetolerance="10"
     inkscape:pageopacity="0"
     inkscape:pageshadow="2"
     inkscape:window-width="1920"
     inkscape:window-height="1001"
     id="namedview31"
     showgrid="false"
     showguides="true"
     inkscape:guide-bbox="true"
     inkscape:zoom="0.3433039"
     inkscape:cx="87.35962"
     inkscape:cy="-372.30569"
     inkscape:window-x="-9"
     inkscape:window-y="-9"
     inkscape:window-maximized="1"
     inkscape:current-layer="svg2">
    <sodipodi:guide
       position="-396.33253,-255.1321"
       orientation="0,-1"
       id="guide134" />
  </sodipodi:namedview>
  <defs
     id="defs59" />
  <g
     transform="matrix(13.084187,0,0,13.084187,-5363.2292,-4089.0336)"
     id="g15782">
    <path
       d="M 100.90336,182.59056 271.8325,364.68111"
       style="fill:none;stroke:#ff3b05;stroke-width:1.009;stroke-linejoin:round;stroke-miterlimit:4;stroke-dasharray:8.072, 8.072;stroke-dashoffset:1.8162;stroke-opacity:1"
       id="path54" />
    <path
       d="M 157.87974,364.68111 228.28525,225.57087"
       style="fill:none;stroke:#ff3b05;stroke-width:1.009;stroke-linejoin:round;stroke-miterlimit:4;stroke-dasharray:8.072, 8.072;stroke-dashoffset:1.8162;stroke-opacity:1"
       id="path56" />
    <path
       d="m 157.87974,278.72048 c 0,11.05511 5.10236,21.437 13.7126,27.92126 8.61023,6.51968 19.70079,8.32677 29.79921,4.92519"
       style="fill:none;stroke:#003399;stroke-width:0.809;stroke-linejoin:round;stroke-miterlimit:4;stroke-dasharray:none;stroke-opacity:1"
       id="path12" />
    <path
       d="m 201.39155,311.56693 c 6.27165,-2.12598 11.16142,-7.22834 13.21654,-13.7126 2.01968,-6.48425 0.92126,-13.60629 -2.94095,-19.13385"
       style="fill:none;stroke:#003399;stroke-width:0.8;stroke-linejoin:round;stroke-miterlimit:4;stroke-dasharray:none;stroke-opacity:1"
       id="path14" />
    <path
       d="m 211.66714,278.72048 c -2.37401,-3.43701 -6.20079,-5.4567 -10.27559,-5.4567 -4.0748,0 -7.86614,2.01969 -10.27559,5.4567"
       style="fill:none;stroke:#003399;stroke-width:0.8;stroke-linejoin:round;stroke-miterlimit:4;stroke-dasharray:none;stroke-opacity:1"
       id="path16" />
    <path
       d="M 43.926976,364.68111 157.87974,0.5"
       style="fill:none;stroke:#000000;stroke-width:1;stroke-linejoin:round;stroke-miterlimit:4;stroke-dasharray:none;stroke-opacity:1"
       id="path30" />
    <path
       d="M 157.87974,0.5 271.8325,364.68111"
       style="fill:none;stroke:#000000;stroke-width:0.909;stroke-linejoin:round;stroke-miterlimit:4;stroke-dasharray:none;stroke-opacity:1"
       id="path32" />
    <path
       d="M 271.8325,364.68111 H 43.926976"
       style="fill:none;stroke:#000000;stroke-width:1;stroke-linejoin:round;stroke-miterlimit:4;stroke-dasharray:none;stroke-opacity:1"
       id="path34" />
    <path
       d="M 43.926976,364.68111 228.28525,225.57087"
       style="fill:none;stroke:#000000;stroke-width:1;stroke-linejoin:round;stroke-miterlimit:4;stroke-dasharray:none;stroke-opacity:1"
       id="path36" />
    <path
       d="m 228.28525,225.57087 -26.8937,85.99606"
       style="fill:none;stroke:#000000;stroke-width:1;stroke-linejoin:round;stroke-miterlimit:4;stroke-dasharray:none;stroke-opacity:1"
       id="path38" />
    <path
       d="m 157.87974,278.72048 h 53.7874"
       style="fill:none;stroke:#000000;stroke-width:1;stroke-linejoin:round;stroke-miterlimit:4;stroke-dasharray:none;stroke-opacity:1"
       id="path40" />
    <path
       d="m 191.11596,278.72048 10.27559,32.84645"
       style="fill:none;stroke:#000000;stroke-width:1;stroke-linejoin:round;stroke-miterlimit:4;stroke-dasharray:none;stroke-opacity:1"
       id="path42" />
    <path
       d="m 195.04903,291.26378 16.61811,-12.5433"
       style="fill:none;stroke:#000000;stroke-width:1;stroke-linejoin:round;stroke-miterlimit:4;stroke-dasharray:none;stroke-opacity:1"
       id="path44" />
    <path
       d="m 191.11596,278.72048 10.27559,7.75984"
       style="fill:none;stroke:#000000;stroke-width:1;stroke-linejoin:round;stroke-miterlimit:4;stroke-dasharray:none;stroke-opacity:1"
       id="path46" />
    <path
       d="m 196.53722,286.48032 h 4.85433"
       style="fill:none;stroke:#000000;stroke-width:1;stroke-linejoin:round;stroke-miterlimit:4;stroke-dasharray:none;stroke-opacity:1"
       id="path50" />
    <path
       d="M 157.87974,278.72048 271.8325,364.68111"
       style="fill:none;stroke:#000000;stroke-width:1;stroke-linejoin:round;stroke-miterlimit:4;stroke-dasharray:none;stroke-opacity:1"
       id="path52" />
    <path
       d="m 197.45848,283.50394 -2.40945,7.75984"
       style="fill:none;stroke:#000000;stroke-width:1;stroke-linejoin:round;stroke-miterlimit:4;stroke-dasharray:none;stroke-opacity:1"
       id="path48" />
    <path
       d="m 195.04903,291.26378 c 1.48819,0.49607 3.08268,0.2126 4.35827,-0.70866 1.24016,-0.95669 1.98425,-2.48031 1.98425,-4.0748"
       style="fill:none;stroke:#003399;stroke-width:0.8;stroke-linejoin:round;stroke-miterlimit:4;stroke-dasharray:none;stroke-opacity:1"
       id="path20" />
    <path
       d="m 191.11596,278.72048 c -1.45276,2.09055 -1.87795,4.81889 -1.09842,7.29921 0.77952,2.48031 2.65748,4.42913 5.03149,5.24409"
       style="fill:none;stroke:#003399;stroke-width:0.8;stroke-linejoin:round;stroke-miterlimit:4;stroke-dasharray:none;stroke-opacity:1"
       id="path18" />
    <path
       d="m 197.45848,283.50394 c -0.5315,0.17717 -0.99213,0.6378 -1.16929,1.24016 -0.17717,0.60236 -0.1063,1.24016 0.24803,1.73622"
       style="fill:none;stroke:#003399;stroke-width:0.809;stroke-linejoin:round;stroke-miterlimit:4;stroke-dasharray:none;stroke-opacity:1"
       id="path24" />
    <path
       d="m 196.53722,286.48032 c 0.2126,0.28346 0.56693,0.49606 0.92126,0.49606 0.38976,0 0.74409,-0.2126 0.95669,-0.49606"
       style="fill:none;stroke:#003399;stroke-width:0.809;stroke-linejoin:round;stroke-miterlimit:4;stroke-dasharray:none;stroke-opacity:1"
       id="path26" />
    <path
       d="m 201.39155,286.48032 c 0,-0.99213 -0.46063,-1.94882 -1.24016,-2.51575 -0.77952,-0.60236 -1.77165,-0.77953 -2.69291,-0.46063"
       style="fill:none;stroke:#003399;stroke-width:0.809;stroke-linejoin:round;stroke-miterlimit:4;stroke-dasharray:none;stroke-opacity:1"
       id="path22" />
    <path
       d="M 157.87974,0.5 C 88.501786,23.885827 34.112016,80.401575 11.576586,152.43701 c -22.57087,72.07087 -10.5236199,150.98032 32.35039,212.2441"
       style="fill:none;stroke:#003399;stroke-width:0.809;stroke-linejoin:round;stroke-miterlimit:4;stroke-dasharray:none;stroke-opacity:1"
       id="path6" />
    <path
       d="m 43.926976,364.68111 c 26.50394,37.87795 68.846464,60.30708 113.952764,60.30708 45.07087,0 87.44882,-22.42913 113.95276,-60.30708"
       style="fill:none;stroke:#003399;stroke-width:0.809;stroke-linejoin:round;stroke-miterlimit:4;stroke-dasharray:none;stroke-opacity:1"
       id="path8" />
    <path
       d="m 271.8325,364.68111 c 16.37007,-23.38583 20.97637,-53.53937 12.36614,-81.07087 -8.61024,-27.49606 -29.40945,-49.0748 -55.91339,-58.03937"
       style="fill:none;stroke:#003399;stroke-width:0.809;stroke-linejoin:round;stroke-miterlimit:4;stroke-dasharray:none;stroke-opacity:1"
       id="path28" />
    <path
       d="m 228.28525,225.57087 c -16.37008,-5.52756 -34.29921,-2.55118 -48.22441,7.93701 -13.92519,10.52362 -22.1811,27.3189 -22.1811,45.2126"
       style="fill:none;stroke:#003399;stroke-width:0.809;stroke-linejoin:round;stroke-miterlimit:4;stroke-dasharray:none;stroke-opacity:1"
       id="path10" />
  </g>
  <rect
     style="fill:#552200;fill-rule:evenodd;stroke-width:64.7508"
     id="rect39-8"
     width="2985.8267"
     height="4765.7095"
     x="-4792.3486"
     y="-4083.1873" />
  <rect
     style="fill:#ff0000;fill-rule:evenodd;stroke-width:32.3754"
     id="rect39-8-8"
     width="1492.9133"
     height="2382.855"
     x="-4792.3486"
     y="-4083.1873" />
  <path
     id="rect39-8-7"
     style="fill:#ffd42a;fill-rule:evenodd;stroke-width:64.7508"
     d="m -3297.5012,-4082.4915 v 0 L -1806.522,682.52222 h -2985.8266 z"
     sodipodi:nodetypes="ccccc" />
  <rect
     style="fill:#552200;fill-rule:evenodd;stroke-width:51.2524"
     id="rect39-8-3"
     width="2985.8267"
     height="2985.8267"
     x="-4792.3486"
     y="682.52222" />
  <rect
     style="fill:#808000;fill-rule:evenodd;stroke-width:25.6262"
     id="rect39-8-3-3"
     width="1492.9133"
     height="1492.9133"
     x="-4790.4146"
     y="682.52222" />
  <path
     id="rect39-8-3-3-5"
     style="fill:#c83737;fill-rule:evenodd;stroke-width:25.6262"
     d="M -3299.4355 682.52148 L -3299.4355 2175.4355 L -1806.5215 2175.4355 L -1806.5215 2175.2754 A 1492.9133 1492.9133 0 0 1 -3299.1719 682.52148 L -3299.4355 682.52148 z " />
  <rect
     style="fill:#d35f5f;fill-rule:evenodd;stroke-width:25.6262"
     id="rect39-8-3-3-5-5"
     width="1492.9133"
     height="1492.9133"
     x="-4792.3486"
     y="2175.4355" />
  <rect
     style="fill:#ff6600;fill-rule:evenodd;stroke-width:25.6262"
     id="rect39-8-3-3-5-5-5"
     width="1492.9133"
     height="1492.9133"
     x="-3299.4353"
     y="2175.4355" />
  <path
     id="rect39-8-3-3-5-9"
     style="fill:#c83737;fill-rule:evenodd;stroke-width:25.6262"
     d="M -3299.6991,682.52148 V -810.39248 h 1492.914 v 0.1601 A 1492.9133,1492.9133 0 0 0 -3299.4355,682.52148 Z" />
  <path
     id="rect39-8-3-3-5-9-8"
     style="fill:#c83737;fill-rule:evenodd;stroke-width:25.6262"
     d="M -3301.6334,682.52078 V -810.39324 h -1492.914 v 0.1601 A 1492.9133,1492.9133 0 0 1 -3301.897,682.52078 Z" />
  <path
     id="rect39-8-3-3-5-9-4"
     style="fill:#000000;fill-rule:evenodd;stroke-width:25.6262"
     d="M -3301.897,2175.4347 V 682.52078 h 1492.914 v 0.1601 A 1492.9133,1492.9133 0 0 0 -3301.6334,2175.4347 Z" />
  <path
     id="rect39-8-3-3-5-9-8-1"
     style="fill:#000000;fill-rule:evenodd;stroke-width:25.6262"
     d="M -3303.8313,2175.434 V 682.52002 h -1492.914 v 0.1601 A 1492.9133,1492.9133 0 0 1 -3304.0949,2175.434 Z" />
  <path
     id="rect39-8-7-2"
     style="fill:#000000;fill-rule:evenodd;stroke-width:64.7508"
     d="m -3297.5011,-4082.4915 v 0 l 1490.9792,4765.01374 h -2985.8266 z"
     sodipodi:nodetypes="ccccc" />
  <path
     id="rect39-8-3-3-5-9-4-6"
     style="fill:#000000;fill-rule:evenodd;stroke-width:25.6262"
     d="M -3303.8313,-810.39383 V 682.52002 h 1492.914 v -0.1601 A 1492.9133,1492.9133 0 0 1 -3303.5677,-810.39383 Z" />
  <path
     id="rect39-8-3-3-5-9-8-1-9"
     style="fill:#000000;fill-rule:evenodd;stroke-width:25.6262"
     d="M -3305.7656,-810.39313 V 682.52082 h -1492.914 v -0.1601 a 1492.9133,1492.9133 0 0 0 1492.6504,-1492.75385 z" />
  <path
     id="rect39-8-3-3-5-9-4-66"
     style="fill:#ff6600;fill-rule:evenodd;stroke-width:25.6262"
     d="m -3297.7648,682.52062 v -1492.9139 h 1492.914 v 0.1601 a 1492.9133,1492.9133 0 0 0 -1492.6504,1492.7538 z" />
  <path
     id="rect39-8-3-3-5-9-8-1-0"
     style="fill:#ff6600;fill-rule:evenodd;stroke-width:25.6262"
     d="m -3297.7648,682.52062 v -1492.9139 h -1492.914 v 0.1601 a 1492.9133,1492.9133 0 0 1 1492.6504,1492.7538 z" />
  <path
     id="rect39-8-3-3-5-9-4-6-6"
     style="fill:#ff6600;fill-rule:evenodd;stroke-width:37.9385"
     d="m -3297.7648,-4082.4906 v 3272.09732 h 1492.914 v -0.35112 a 1492.9133,3272.0959 0 0 1 -1492.6504,-3271.7462 z" />
  <path
     id="rect39-8-3-3-5-9-8-1-9-8"
     style="fill:#ff6600;fill-rule:evenodd;stroke-width:37.9385"
     d="m -3297.7648,-4082.4908 v 3272.09752 h -1492.914 v -0.35112 a 1492.9133,3272.0959 0 0 0 1492.6504,-3271.7464 z" />
  <path
     id="rect39-8-3-3-5-9-4-66-0"
     style="fill:#501616;fill-rule:evenodd;stroke-width:25.6262"
     d="M -3297.7648,2175.4345 V 682.52062 h 1492.914 v 0.1601 A 1492.9133,1492.9133 0 0 0 -3297.5012,2175.4345 Z" />
  <path
     id="rect39-8-3-3-5-9-8-1-0-5"
     style="fill:#501616;fill-rule:evenodd;stroke-width:25.6262"
     d="M -3297.7648,2175.4345 V 682.52062 h -1492.914 v 0.1601 a 1492.9133,1492.9133 0 0 1 1492.6504,1492.75378 z" />
  <path
     id="rect39-8-3-3-5-9-4-6-6-3"
     style="fill:#501616;fill-rule:evenodd;stroke-width:45.7824"
     d="M -3297.7648,-4082.4905 V 682.52062 h 1492.914 v -0.51129 A 1492.9133,4765.0089 0 0 1 -3297.5012,-4082.4905 Z" />
  <path
     id="rect39-8-3-3-5-9-8-1-9-8-3"
     style="fill:#501616;fill-rule:evenodd;stroke-width:45.7824"
     d="M -3297.7648,-4082.4908 V 682.52062 h -1492.914 v -0.51129 a 1492.9133,4765.0089 0 0 0 1492.6504,-4764.50013 z" />
  <circle
     style="fill:#502d16;stroke-width:0.067176"
     id="path760"
     cx="144.00609"
     cy="-324.7576"
     r="209.76378"
     inkscape:export-xdpi="96"
     inkscape:export-ydpi="96" />
  <g
     id="g790"
     transform="matrix(0.09159449,0,0,0.09160248,-1469.618,170.47187)"
     style="fill:#ffffff"
     inkscape:export-xdpi="96"
     inkscape:export-ydpi="96">
    <path
       id="rect39-8-3-3-5-9-4-66-0-3-2"
       style="fill:#ffffff;fill-rule:evenodd;stroke-width:8.44853"
       d="m 17616.958,-7469.2937 a 492.18829,1570.9429 0 0 1 -492.102,1570.7751 v 0.1687 0.053 a 492.18829,492.18829 0 0 1 492.102,492.1357 h 0.09 0.09 a 492.18829,492.18829 0 0 1 492.101,-492.1357 v -0.053 -0.1687 a 492.18829,1570.9429 0 0 1 -492.101,-1570.7751 h -0.09 z" />
    <path
       id="rect39-8-3-3-5-9-4-66-0-3-6-2"
       style="fill:#ffffff;fill-rule:evenodd;stroke-width:8.44853"
       d="m 19680.229,-5406.4162 a 1570.9429,492.18829 0 0 1 -1570.775,-492.1024 h -0.168 -0.05 a 492.18829,492.18829 0 0 1 -492.137,492.1024 v 0.086 0.088 a 492.18829,492.18829 0 0 1 492.137,492.1008 h 0.05 0.168 a 1570.9429,492.18829 0 0 1 1570.775,-492.1008 v -0.088 z" />
    <path
       id="rect39-8-3-3-5-9-4-66-0-3-6-5-3"
       style="fill:#ffffff;fill-rule:evenodd;stroke-width:8.44853"
       d="m 17617.097,-3343.2838 a 492.18829,1570.9429 0 0 1 492.102,-1570.7747 v -0.1688 -0.053 a 492.18829,492.18829 0 0 1 -492.102,-492.1361 h -0.09 -0.09 a 492.18829,492.18829 0 0 1 -492.101,492.1361 v 0.053 0.1688 a 492.18829,1570.9429 0 0 1 492.101,1570.7747 h 0.09 z" />
    <path
       id="rect39-8-3-3-5-9-4-66-0-3-6-1-5"
       style="fill:#ffffff;fill-rule:evenodd;stroke-width:8.44853"
       d="m 15553.859,-5406.2441 a 1570.9429,492.18829 0 0 1 1570.775,492.1025 h 0.169 0.05 a 492.18829,492.18829 0 0 1 492.136,-492.1025 v -0.086 -0.088 a 492.18829,492.18829 0 0 1 -492.136,-492.1008 h -0.05 -0.169 a 1570.9429,492.18829 0 0 1 -1570.775,492.1008 v 0.088 z" />
  </g>
</svg>
