<?xml version="1.0" encoding="UTF-8" standalone="no"?>
<!-- Created with Inkscape (http://www.inkscape.org/) -->

<svg
   xmlns:dc="http://purl.org/dc/elements/1.1/"
   xmlns:cc="http://creativecommons.org/ns#"
   xmlns:rdf="http://www.w3.org/1999/02/22-rdf-syntax-ns#"
   xmlns:svg="http://www.w3.org/2000/svg"
   xmlns="http://www.w3.org/2000/svg"
   xmlns:sodipodi="http://sodipodi.sourceforge.net/DTD/sodipodi-0.dtd"
   xmlns:inkscape="http://www.inkscape.org/namespaces/inkscape"
   width="210mm"
   height="297mm"
   viewBox="0 0 210 297"
   version="1.1"
   id="svg8"
   inkscape:version="0.92.4 (5da689c313, 2019-01-14)"
   sodipodi:docname="@novanism.svg">
  <defs
     id="defs2" />
  <sodipodi:namedview
     id="base"
     pagecolor="#ffffff"
     bordercolor="#666666"
     borderopacity="1.0"
     inkscape:pageopacity="0.0"
     inkscape:pageshadow="2"
     inkscape:zoom="0.51584378"
     inkscape:cx="-3018.789"
     inkscape:cy="-742.12126"
     inkscape:document-units="mm"
     inkscape:current-layer="layer1"
     showgrid="false"
     showguides="true"
     inkscape:guide-bbox="true"
     inkscape:window-width="1920"
     inkscape:window-height="1001"
     inkscape:window-x="-9"
     inkscape:window-y="-9"
     inkscape:window-maximized="1">
    <sodipodi:guide
       position="154.94441,151.61075"
       orientation="1,0"
       id="guide823"
       inkscape:locked="false" />
    <sodipodi:guide
       position="54.934325,150.89843"
       orientation="1,0"
       id="guide845"
       inkscape:locked="false" />
    <sodipodi:guide
       position="105.02249,182.5522"
       orientation="1,0"
       id="guide835"
       inkscape:locked="false" />
    <sodipodi:guide
       position="154.93432,150.89843"
       orientation="0,1"
       id="guide837"
       inkscape:locked="false" />
    <sodipodi:guide
       position="127.52866,335.92918"
       orientation="0,1"
       id="guide869"
       inkscape:locked="false" />
    <sodipodi:guide
       position="167.84355,344.89718"
       orientation="0,1"
       id="guide903"
       inkscape:locked="false" />
  </sodipodi:namedview>
  <metadata
     id="metadata5">
    <rdf:RDF>
      <cc:Work
         rdf:about="">
        <dc:format>image/svg+xml</dc:format>
        <dc:type
           rdf:resource="http://purl.org/dc/dcmitype/StillImage" />
        <dc:title />
      </cc:Work>
    </rdf:RDF>
  </metadata>
  <g
     inkscape:label="Laag 1"
     inkscape:groupmode="layer"
     id="layer1">
    <rect
       style="opacity:0.97000002;vector-effect:none;fill:#000000;fill-opacity:1;stroke:none;stroke-width:0.49136081;stroke-linecap:butt;stroke-linejoin:round;stroke-miterlimit:4;stroke-dasharray:none;stroke-dashoffset:0;stroke-opacity:1"
       id="rect815"
       width="100"
       height="5"
       x="54.934319"
       y="141.10158" />
    <circle
       style="opacity:0.97000002;vector-effect:none;fill:#000000;fill-opacity:1;stroke:none;stroke-width:1;stroke-linecap:butt;stroke-linejoin:round;stroke-miterlimit:4;stroke-dasharray:none;stroke-dashoffset:0;stroke-opacity:1"
       id="path821"
       cx="154.9274"
       cy="143.87186"
       r="4.5588646" />
    <rect
       style="opacity:0.97000002;vector-effect:none;fill:#000000;fill-opacity:1;stroke:none;stroke-width:0.49136084;stroke-linecap:butt;stroke-linejoin:round;stroke-miterlimit:4;stroke-dasharray:none;stroke-dashoffset:0;stroke-opacity:1"
       id="rect815-7"
       width="100"
       height="5"
       x="-154.93433"
       y="141.10158"
       transform="scale(-1,1)" />
    <circle
       style="opacity:0.97000002;vector-effect:none;fill:#000000;fill-opacity:1;stroke:none;stroke-width:1;stroke-linecap:butt;stroke-linejoin:round;stroke-miterlimit:4;stroke-dasharray:none;stroke-dashoffset:0;stroke-opacity:1"
       id="path821-9"
       cx="-54.941242"
       cy="143.87186"
       r="4.5588646"
       transform="scale(-1,1)" />
    <circle
       style="opacity:0.97000002;vector-effect:none;fill:none;fill-opacity:0.81395347;stroke:#000000;stroke-width:2.01198626;stroke-linecap:butt;stroke-linejoin:round;stroke-miterlimit:4;stroke-dasharray:none;stroke-dashoffset:0;stroke-opacity:1"
       id="path843"
       cx="154.73463"
       cy="141.9678"
       r="99.49057" />
    <circle
       style="opacity:0.97000002;vector-effect:none;fill:none;fill-opacity:0.81395347;stroke:#000000;stroke-width:2.01198626;stroke-linecap:butt;stroke-linejoin:round;stroke-miterlimit:4;stroke-dasharray:none;stroke-dashoffset:0;stroke-opacity:1"
       id="path843-0"
       cx="55.465549"
       cy="141.92508"
       r="99.49057" />
    <circle
       style="opacity:0.97000002;vector-effect:none;fill:none;fill-opacity:0.81395347;stroke:#000000;stroke-width:2.01198626;stroke-linecap:butt;stroke-linejoin:round;stroke-miterlimit:4;stroke-dasharray:none;stroke-dashoffset:0;stroke-opacity:1"
       id="path843-6"
       cx="105.0518"
       cy="61.111774"
       r="99.49057" />
    <circle
       r="188.021"
       cy="141.9678"
       cx="154.73463"
       id="circle886"
       style="opacity:0.97000002;vector-effect:none;fill:none;fill-opacity:0.81395347;stroke:#000000;stroke-width:3.80232668;stroke-linecap:butt;stroke-linejoin:round;stroke-miterlimit:4;stroke-dasharray:none;stroke-dashoffset:0;stroke-opacity:1" />
    <circle
       r="188.021"
       cy="137.58917"
       cx="-33.98555"
       id="circle886-5"
       style="opacity:0.97000002;vector-effect:none;fill:none;fill-opacity:0.81395347;stroke:#000000;stroke-width:3.80232668;stroke-linecap:butt;stroke-linejoin:round;stroke-miterlimit:4;stroke-dasharray:none;stroke-dashoffset:0;stroke-opacity:1" />
    <rect
       style="opacity:0.97000002;vector-effect:none;fill:#000000;fill-opacity:1;stroke:none;stroke-width:0.49136084;stroke-linecap:butt;stroke-linejoin:round;stroke-miterlimit:4;stroke-dasharray:none;stroke-dashoffset:0;stroke-opacity:1"
       id="rect815-1"
       width="100"
       height="5"
       x="-413.96155"
       y="-309.77094" />
    <circle
       style="opacity:0.97000002;vector-effect:none;fill:#000000;fill-opacity:1;stroke:none;stroke-width:1;stroke-linecap:butt;stroke-linejoin:round;stroke-miterlimit:4;stroke-dasharray:none;stroke-dashoffset:0;stroke-opacity:1"
       id="path821-99"
       cx="-313.96844"
       cy="-307.00064"
       r="4.5588646" />
    <rect
       style="opacity:0.97000002;vector-effect:none;fill:#000000;fill-opacity:1;stroke:none;stroke-width:0.49136084;stroke-linecap:butt;stroke-linejoin:round;stroke-miterlimit:4;stroke-dasharray:none;stroke-dashoffset:0;stroke-opacity:1"
       id="rect815-7-5"
       width="100"
       height="5"
       x="313.96155"
       y="-309.77094"
       transform="scale(-1,1)" />
    <circle
       style="opacity:0.97000002;vector-effect:none;fill:#000000;fill-opacity:1;stroke:none;stroke-width:1;stroke-linecap:butt;stroke-linejoin:round;stroke-miterlimit:4;stroke-dasharray:none;stroke-dashoffset:0;stroke-opacity:1"
       id="path821-9-7"
       cx="413.95465"
       cy="-307.00064"
       r="4.5588646"
       transform="scale(-1,1)" />
    <circle
       style="opacity:0.97000002;vector-effect:none;fill:none;fill-opacity:0.81395347;stroke:#000000;stroke-width:2.01198626;stroke-linecap:butt;stroke-linejoin:round;stroke-miterlimit:4;stroke-dasharray:none;stroke-dashoffset:0;stroke-opacity:1"
       id="path843-4"
       cx="-314.16125"
       cy="-308.90469"
       r="99.49057" />
    <circle
       style="opacity:0.97000002;vector-effect:none;fill:none;fill-opacity:0.81395347;stroke:#000000;stroke-width:2.01198626;stroke-linecap:butt;stroke-linejoin:round;stroke-miterlimit:4;stroke-dasharray:none;stroke-dashoffset:0;stroke-opacity:1"
       id="path843-0-6"
       cx="-413.4303"
       cy="-308.94742"
       r="99.49057" />
    <circle
       style="opacity:0.97000002;vector-effect:none;fill:none;fill-opacity:0.81395347;stroke:#000000;stroke-width:2.01198626;stroke-linecap:butt;stroke-linejoin:round;stroke-miterlimit:4;stroke-dasharray:none;stroke-dashoffset:0;stroke-opacity:1"
       id="path843-6-4"
       cx="-363.84406"
       cy="-389.76071"
       r="99.49057" />
    <path
       style="fill:none;stroke:#c80000;stroke-width:5;stroke-linecap:butt;stroke-linejoin:miter;stroke-opacity:1;stroke-miterlimit:4;stroke-dasharray:none"
       d="M 154.94441,146.10157 105.02249,52.314077 -32.441504,146.10157 Z"
       id="path944"
       inkscape:connector-curvature="0" />
    <path
       inkscape:connector-curvature="0"
       d="M -2.1418714,146.19081 A 97.083272,97.049153 0 0 1 94.94141,49.141657"
       id="path1873"
       style="opacity:1;fill:none;fill-opacity:1;fill-rule:nonzero;stroke:#000000;stroke-width:0.47594863;stroke-linejoin:miter;stroke-miterlimit:4;stroke-dasharray:none;stroke-opacity:1" />
    <path
       inkscape:connector-curvature="0"
       style="opacity:1;fill:none;fill-opacity:1;fill-rule:nonzero;stroke:#000000;stroke-width:0.47594863;stroke-linejoin:miter;stroke-miterlimit:4;stroke-dasharray:none;stroke-opacity:1"
       id="path1875"
       d="M 154.94422,109.1233 A 60.00282,59.981731 0 0 0 94.94141,49.141576" />
    <path
       inkscape:connector-curvature="0"
       d="m 117.86396,146.19071 a 37.080364,37.067325 0 0 0 37.08036,-37.06732"
       id="path2762"
       style="opacity:1;fill:none;fill-opacity:1;fill-rule:nonzero;stroke:#000000;stroke-width:0.47594863;stroke-linejoin:miter;stroke-miterlimit:4;stroke-dasharray:none;stroke-opacity:1" />
    <path
       inkscape:connector-curvature="0"
       style="opacity:1;fill:none;fill-opacity:1;fill-rule:nonzero;stroke:#000000;stroke-width:0.47594863;stroke-linejoin:miter;stroke-miterlimit:4;stroke-dasharray:none;stroke-opacity:1"
       id="path2764"
       d="m 94.94151,123.27632 a 22.922371,22.914313 0 0 0 22.92235,22.9143" />
    <path
       inkscape:connector-curvature="0"
       d="M 94.94161,123.27641 A 14.157903,14.152925 0 0 1 109.0995,109.12348"
       id="path2766"
       style="opacity:1;fill:none;fill-opacity:1;fill-rule:nonzero;stroke:#000000;stroke-width:0.47594863;stroke-linejoin:miter;stroke-miterlimit:4;stroke-dasharray:none;stroke-opacity:1" />
    <path
       inkscape:connector-curvature="0"
       style="opacity:1;fill:none;fill-opacity:1;fill-rule:nonzero;stroke:#000000;stroke-width:0.47594863;stroke-linejoin:miter;stroke-miterlimit:4;stroke-dasharray:none;stroke-opacity:1"
       id="path2768"
       d="m 117.86378,117.88469 a 8.7643814,8.7612992 0 0 0 -8.76437,-8.7613" />
    <path
       inkscape:connector-curvature="0"
       d="m 117.86386,117.88459 a 5.3934306,5.3915349 0 0 1 -5.39342,5.39156"
       id="path2770"
       style="opacity:1;fill:none;fill-opacity:1;fill-rule:nonzero;stroke:#000000;stroke-width:0.47594863;stroke-linejoin:miter;stroke-miterlimit:4;stroke-dasharray:none;stroke-opacity:1" />
    <path
       inkscape:connector-curvature="0"
       style="opacity:1;fill:none;fill-opacity:1;fill-rule:nonzero;stroke:#000000;stroke-width:0.47594863;stroke-linejoin:miter;stroke-miterlimit:4;stroke-dasharray:none;stroke-opacity:1"
       id="path2772"
       d="m 109.09948,119.90654 a 3.370861,3.3696762 0 0 0 3.37087,3.3697" />
    <path
       inkscape:connector-curvature="0"
       d="m 109.09957,119.90664 a 2.0224809,2.0217699 0 0 1 2.02248,-2.02177"
       id="path2774"
       style="opacity:1;fill:none;fill-opacity:1;fill-rule:nonzero;stroke:#000000;stroke-width:0.47594863;stroke-linejoin:miter;stroke-miterlimit:4;stroke-dasharray:none;stroke-opacity:1" />
    <path
       inkscape:connector-curvature="0"
       id="rect2784"
       d="m 111.12205,119.90664 v -2.02186"
       style="fill:none;fill-opacity:1;fill-rule:nonzero;stroke:#000000;stroke-width:0.47594863;stroke-linejoin:miter;stroke-miterlimit:4;stroke-dasharray:none;stroke-opacity:1" />
    <path
       inkscape:connector-curvature="0"
       id="rect2786"
       d="M 112.47036,119.90655 H 109.0994"
       style="fill:none;fill-opacity:1;fill-rule:nonzero;stroke:#000000;stroke-width:0.47594863;stroke-linejoin:miter;stroke-miterlimit:4;stroke-dasharray:none;stroke-opacity:1" />
    <path
       inkscape:connector-curvature="0"
       id="rect2788"
       d="m 111.12197,119.2326 h 1.34839"
       style="fill:none;fill-opacity:1;fill-rule:nonzero;stroke:#000000;stroke-width:0.47594863;stroke-linejoin:miter;stroke-miterlimit:4;stroke-dasharray:none;stroke-opacity:1" />
    <path
       inkscape:connector-curvature="0"
       id="rect2790"
       d="m 111.79623,119.23269 v 0.67395"
       style="fill:none;fill-opacity:1;fill-rule:nonzero;stroke:#000000;stroke-width:0.47594863;stroke-linejoin:miter;stroke-miterlimit:4;stroke-dasharray:none;stroke-opacity:1" />
    <path
       inkscape:connector-curvature="0"
       id="rect2794"
       d="m 112.47045,117.88461 v 5.39163"
       style="fill:none;fill-opacity:1;fill-rule:nonzero;stroke:#000000;stroke-width:0.47594863;stroke-linejoin:miter;stroke-miterlimit:4;stroke-dasharray:none;stroke-opacity:1" />
    <path
       inkscape:connector-curvature="0"
       id="rect2796"
       d="m 109.0994,117.88469 h 8.76447"
       style="fill:none;fill-opacity:1;fill-rule:nonzero;stroke:#000000;stroke-width:0.47594863;stroke-linejoin:miter;stroke-miterlimit:4;stroke-dasharray:none;stroke-opacity:1" />
    <path
       inkscape:connector-curvature="0"
       id="rect2798"
       d="M 109.09948,123.27641 V 109.12339"
       style="fill:none;fill-opacity:1;fill-rule:nonzero;stroke:#000000;stroke-width:0.47594863;stroke-linejoin:miter;stroke-miterlimit:4;stroke-dasharray:none;stroke-opacity:1" />
    <path
       inkscape:connector-curvature="0"
       id="rect2800"
       d="M 117.86387,123.27632 H 94.94142"
       style="fill:none;fill-opacity:1;fill-rule:nonzero;stroke:#000000;stroke-width:0.47594863;stroke-linejoin:miter;stroke-miterlimit:4;stroke-dasharray:none;stroke-opacity:1" />
    <path
       inkscape:connector-curvature="0"
       id="rect2802"
       d="m 117.86396,109.1234 v 37.06741"
       style="fill:none;fill-opacity:1;fill-rule:nonzero;stroke:#000000;stroke-width:0.47594863;stroke-linejoin:miter;stroke-miterlimit:4;stroke-dasharray:none;stroke-opacity:1" />
    <path
       inkscape:connector-curvature="0"
       id="rect2804"
       d="m 94.94142,109.08922 h 60.03697"
       style="fill:none;fill-opacity:1;fill-rule:nonzero;stroke:#000000;stroke-width:0.47594863;stroke-linejoin:miter;stroke-miterlimit:4;stroke-dasharray:none;stroke-opacity:1" />
    <path
       inkscape:connector-curvature="0"
       id="rect2806"
       d="M 94.94151,146.19081 V 49.141576"
       style="fill:none;fill-opacity:1;fill-rule:nonzero;stroke:#000000;stroke-width:0.47594863;stroke-linejoin:miter;stroke-miterlimit:4;stroke-dasharray:none;stroke-opacity:1" />
    <path
       inkscape:connector-curvature="0"
       style="fill:none;fill-opacity:1;fill-rule:nonzero;stroke:#000000;stroke-width:0.47594863;stroke-linejoin:miter;stroke-miterlimit:4;stroke-dasharray:none;stroke-opacity:1"
       d="M -2.1418694,146.19081 V 49.052325"
       id="path922" />
    <path
       inkscape:connector-curvature="0"
       id="path924"
       d="M 154.94441,146.10157 V 49.05233"
       style="fill:none;fill-opacity:1;fill-rule:nonzero;stroke:#000000;stroke-width:0.47594863;stroke-linejoin:miter;stroke-miterlimit:4;stroke-dasharray:none;stroke-opacity:1" />
    <path
       inkscape:connector-curvature="0"
       style="fill:none;fill-opacity:1;fill-rule:nonzero;stroke:#000000;stroke-width:0.47594863;stroke-linejoin:miter;stroke-miterlimit:4;stroke-dasharray:none;stroke-opacity:1"
       d="M -2.1419574,49.052235 H 155.03351"
       id="path926" />
    <path
       inkscape:connector-curvature="0"
       id="path928"
       d="M -2.1419574,146.19072 H 155.0335"
       style="fill:none;fill-opacity:1;fill-rule:nonzero;stroke:#000000;stroke-width:0.47594863;stroke-linejoin:miter;stroke-miterlimit:4;stroke-dasharray:none;stroke-opacity:1" />
    <path
       inkscape:connector-curvature="0"
       d="m 112.47027,119.23259 a 1.3482909,1.3478168 0 0 0 -1.34829,-1.34782"
       id="path1028"
       style="opacity:1;fill:none;fill-opacity:1;fill-rule:nonzero;stroke:#000000;stroke-width:0.47594863;stroke-linejoin:miter;stroke-miterlimit:4;stroke-dasharray:none;stroke-opacity:1" />
    <path
       inkscape:connector-curvature="0"
       style="opacity:1;fill:none;fill-opacity:1;fill-rule:nonzero;stroke:#000000;stroke-width:0.47594863;stroke-linejoin:miter;stroke-miterlimit:4;stroke-dasharray:none;stroke-opacity:1"
       id="path1030"
       d="m 112.47036,119.23269 a 0.67410082,0.67386379 0 0 1 -0.67412,0.67386" />
    <path
       inkscape:connector-curvature="0"
       d="m 111.12329,119.23156 a 0.67410084,0.67386389 0 0 0 0.67409,0.67386"
       id="path1034"
       style="opacity:1;fill:none;fill-opacity:1;fill-rule:nonzero;stroke:#000000;stroke-width:0.47594863;stroke-linejoin:miter;stroke-miterlimit:4;stroke-dasharray:none;stroke-opacity:1" />
    <path
       inkscape:connector-curvature="0"
       d="m 295.72075,439.14809 a 97.083274,97.049153 0 0 1 97.08328,-97.04915"
       id="path1873-4"
       style="opacity:1;fill:none;fill-opacity:1;fill-rule:nonzero;stroke:#000000;stroke-width:0.47594863;stroke-linejoin:miter;stroke-miterlimit:4;stroke-dasharray:none;stroke-opacity:1" />
    <path
       inkscape:connector-curvature="0"
       style="opacity:1;fill:none;fill-opacity:1;fill-rule:nonzero;stroke:#000000;stroke-width:0.47594863;stroke-linejoin:miter;stroke-miterlimit:4;stroke-dasharray:none;stroke-opacity:1"
       id="path1875-1"
       d="M 452.80685,402.08058 A 60.00282,59.981732 0 0 0 392.80403,342.09886" />
    <path
       inkscape:connector-curvature="0"
       d="m 415.72659,439.14799 a 37.080365,37.067326 0 0 0 37.08036,-37.06732"
       id="path2762-6"
       style="opacity:1;fill:none;fill-opacity:1;fill-rule:nonzero;stroke:#000000;stroke-width:0.47594863;stroke-linejoin:miter;stroke-miterlimit:4;stroke-dasharray:none;stroke-opacity:1" />
    <path
       inkscape:connector-curvature="0"
       style="opacity:1;fill:none;fill-opacity:1;fill-rule:nonzero;stroke:#000000;stroke-width:0.47594863;stroke-linejoin:miter;stroke-miterlimit:4;stroke-dasharray:none;stroke-opacity:1"
       id="path2764-5"
       d="m 392.80413,416.2336 a 22.922371,22.914313 0 0 0 22.92236,22.9143" />
    <path
       inkscape:connector-curvature="0"
       d="m 392.80423,416.23369 a 14.157903,14.152925 0 0 1 14.1579,-14.15293"
       id="path2766-5"
       style="opacity:1;fill:none;fill-opacity:1;fill-rule:nonzero;stroke:#000000;stroke-width:0.47594863;stroke-linejoin:miter;stroke-miterlimit:4;stroke-dasharray:none;stroke-opacity:1" />
    <path
       inkscape:connector-curvature="0"
       style="opacity:1;fill:none;fill-opacity:1;fill-rule:nonzero;stroke:#000000;stroke-width:0.47594863;stroke-linejoin:miter;stroke-miterlimit:4;stroke-dasharray:none;stroke-opacity:1"
       id="path2768-8"
       d="m 415.72641,410.84197 a 8.7643814,8.7612993 0 0 0 -8.76437,-8.7613" />
    <path
       inkscape:connector-curvature="0"
       d="m 415.72649,410.84187 a 5.3934307,5.391535 0 0 1 -5.39342,5.39156"
       id="path2770-2"
       style="opacity:1;fill:none;fill-opacity:1;fill-rule:nonzero;stroke:#000000;stroke-width:0.47594863;stroke-linejoin:miter;stroke-miterlimit:4;stroke-dasharray:none;stroke-opacity:1" />
    <path
       inkscape:connector-curvature="0"
       style="opacity:1;fill:none;fill-opacity:1;fill-rule:nonzero;stroke:#000000;stroke-width:0.47594863;stroke-linejoin:miter;stroke-miterlimit:4;stroke-dasharray:none;stroke-opacity:1"
       id="path2772-7"
       d="m 406.96211,412.86382 a 3.370861,3.3696762 0 0 0 3.37087,3.3697" />
    <path
       inkscape:connector-curvature="0"
       d="m 406.9622,412.86392 a 2.0224809,2.0217699 0 0 1 2.02248,-2.02177"
       id="path2774-5"
       style="opacity:1;fill:none;fill-opacity:1;fill-rule:nonzero;stroke:#000000;stroke-width:0.47594863;stroke-linejoin:miter;stroke-miterlimit:4;stroke-dasharray:none;stroke-opacity:1" />
    <path
       inkscape:connector-curvature="0"
       id="rect2784-7"
       d="m 408.98468,412.86392 v -2.02186"
       style="fill:none;fill-opacity:1;fill-rule:nonzero;stroke:#000000;stroke-width:0.47594863;stroke-linejoin:miter;stroke-miterlimit:4;stroke-dasharray:none;stroke-opacity:1" />
    <path
       inkscape:connector-curvature="0"
       id="rect2786-7"
       d="m 410.33299,412.86383 h -3.37096"
       style="fill:none;fill-opacity:1;fill-rule:nonzero;stroke:#000000;stroke-width:0.47594863;stroke-linejoin:miter;stroke-miterlimit:4;stroke-dasharray:none;stroke-opacity:1" />
    <path
       inkscape:connector-curvature="0"
       id="rect2788-1"
       d="m 408.9846,412.18988 h 1.34839"
       style="fill:none;fill-opacity:1;fill-rule:nonzero;stroke:#000000;stroke-width:0.47594863;stroke-linejoin:miter;stroke-miterlimit:4;stroke-dasharray:none;stroke-opacity:1" />
    <path
       inkscape:connector-curvature="0"
       id="rect2790-8"
       d="m 409.65886,412.18997 v 0.67395"
       style="fill:none;fill-opacity:1;fill-rule:nonzero;stroke:#000000;stroke-width:0.47594863;stroke-linejoin:miter;stroke-miterlimit:4;stroke-dasharray:none;stroke-opacity:1" />
    <path
       inkscape:connector-curvature="0"
       id="rect2794-1"
       d="m 410.33308,410.84189 v 5.39163"
       style="fill:none;fill-opacity:1;fill-rule:nonzero;stroke:#000000;stroke-width:0.47594863;stroke-linejoin:miter;stroke-miterlimit:4;stroke-dasharray:none;stroke-opacity:1" />
    <path
       inkscape:connector-curvature="0"
       id="rect2796-1"
       d="m 406.96203,410.84197 h 8.76447"
       style="fill:none;fill-opacity:1;fill-rule:nonzero;stroke:#000000;stroke-width:0.47594863;stroke-linejoin:miter;stroke-miterlimit:4;stroke-dasharray:none;stroke-opacity:1" />
    <path
       inkscape:connector-curvature="0"
       id="rect2798-0"
       d="M 406.96211,416.23369 V 402.08067"
       style="fill:none;fill-opacity:1;fill-rule:nonzero;stroke:#000000;stroke-width:0.47594863;stroke-linejoin:miter;stroke-miterlimit:4;stroke-dasharray:none;stroke-opacity:1" />
    <path
       inkscape:connector-curvature="0"
       id="rect2800-3"
       d="M 415.7265,416.2336 H 392.80404"
       style="fill:none;fill-opacity:1;fill-rule:nonzero;stroke:#000000;stroke-width:0.47594863;stroke-linejoin:miter;stroke-miterlimit:4;stroke-dasharray:none;stroke-opacity:1" />
    <path
       inkscape:connector-curvature="0"
       id="rect2802-5"
       d="m 415.72659,402.08068 v 37.06741"
       style="fill:none;fill-opacity:1;fill-rule:nonzero;stroke:#000000;stroke-width:0.47594863;stroke-linejoin:miter;stroke-miterlimit:4;stroke-dasharray:none;stroke-opacity:1" />
    <path
       inkscape:connector-curvature="0"
       id="rect2804-0"
       d="m 392.80404,402.0465 h 60.03698"
       style="fill:none;fill-opacity:1;fill-rule:nonzero;stroke:#000000;stroke-width:0.47594863;stroke-linejoin:miter;stroke-miterlimit:4;stroke-dasharray:none;stroke-opacity:1" />
    <path
       inkscape:connector-curvature="0"
       id="rect2806-2"
       d="M 392.80413,439.14809 V 342.09886"
       style="fill:none;fill-opacity:1;fill-rule:nonzero;stroke:#000000;stroke-width:0.47594863;stroke-linejoin:miter;stroke-miterlimit:4;stroke-dasharray:none;stroke-opacity:1" />
    <path
       inkscape:connector-curvature="0"
       style="fill:none;fill-opacity:1;fill-rule:nonzero;stroke:#000000;stroke-width:0.47594863;stroke-linejoin:miter;stroke-miterlimit:4;stroke-dasharray:none;stroke-opacity:1"
       d="M 295.72075,439.14809 V 342.00961"
       id="path922-3" />
    <path
       inkscape:connector-curvature="0"
       id="path924-2"
       d="M 452.80704,439.05885 V 342.00961"
       style="fill:none;fill-opacity:1;fill-rule:nonzero;stroke:#000000;stroke-width:0.47594863;stroke-linejoin:miter;stroke-miterlimit:4;stroke-dasharray:none;stroke-opacity:1" />
    <path
       inkscape:connector-curvature="0"
       style="fill:none;fill-opacity:1;fill-rule:nonzero;stroke:#000000;stroke-width:0.47594863;stroke-linejoin:miter;stroke-miterlimit:4;stroke-dasharray:none;stroke-opacity:1"
       d="M 295.72066,342.00952 H 452.89614"
       id="path926-2" />
    <path
       inkscape:connector-curvature="0"
       id="path928-0"
       d="M 295.72066,439.148 H 452.89613"
       style="fill:none;fill-opacity:1;fill-rule:nonzero;stroke:#000000;stroke-width:0.47594863;stroke-linejoin:miter;stroke-miterlimit:4;stroke-dasharray:none;stroke-opacity:1" />
    <path
       inkscape:connector-curvature="0"
       d="m 410.3329,412.18987 a 1.3482909,1.3478168 0 0 0 -1.34829,-1.34782"
       id="path1028-8"
       style="opacity:1;fill:none;fill-opacity:1;fill-rule:nonzero;stroke:#000000;stroke-width:0.47594863;stroke-linejoin:miter;stroke-miterlimit:4;stroke-dasharray:none;stroke-opacity:1" />
    <path
       inkscape:connector-curvature="0"
       style="opacity:1;fill:none;fill-opacity:1;fill-rule:nonzero;stroke:#000000;stroke-width:0.47594863;stroke-linejoin:miter;stroke-miterlimit:4;stroke-dasharray:none;stroke-opacity:1"
       id="path1030-1"
       d="m 410.33299,412.18997 a 0.67410084,0.6738638 0 0 1 -0.67412,0.67386" />
    <path
       inkscape:connector-curvature="0"
       d="m 408.98592,412.18884 a 0.67410084,0.6738639 0 0 0 0.67409,0.67386"
       id="path1034-9"
       style="opacity:1;fill:none;fill-opacity:1;fill-rule:nonzero;stroke:#000000;stroke-width:0.47594863;stroke-linejoin:miter;stroke-miterlimit:4;stroke-dasharray:none;stroke-opacity:1" />
    <rect
       style="fill:#000000;fill-opacity:0.93989066;stroke:#164734;stroke-width:0.49368009;stroke-opacity:1"
       id="rect2021"
       width="616.09302"
       height="334.57645"
       x="-1175.8132"
       y="325.13708"
       inkscape:export-xdpi="96"
       inkscape:export-ydpi="96" />
    <text
       xml:space="preserve"
       style="font-style:normal;font-weight:normal;font-size:24.9308548px;line-height:1.25;font-family:sans-serif;letter-spacing:0px;word-spacing:0px;fill:#000000;fill-opacity:1;stroke:none;stroke-width:1.55817842"
       x="-913.68591"
       y="546.79877"
       id="text947"
       transform="scale(0.95025545,1.0523486)"
       inkscape:export-xdpi="96"
       inkscape:export-ydpi="96"><tspan
         sodipodi:role="line"
         x="-913.68591"
         y="546.79877"
         style="font-style:normal;font-variant:normal;font-weight:bold;font-stretch:normal;font-family:'Times New Roman';-inkscape-font-specification:'Times New Roman,  Bold';text-align:center;text-anchor:middle;fill:#ffffff;fill-opacity:1;stroke-width:1.55817842"
         id="tspan955">NOVANISM</tspan></text>
    <path
       inkscape:connector-curvature="0"
       style="fill:#000000;fill-opacity:0.93989066;stroke:none;stroke-width:4.37998056;stroke-miterlimit:4;stroke-dasharray:none;stroke-opacity:1"
       d="m -362.75793,-393.70306 a 39.528653,47.28291 0 0 0 -0.003,-0.0372 39.528653,47.28291 0 0 0 0.003,-0.0305 h -0.003 a 39.528653,47.28291 0 0 1 -0.52292,0.032 39.528653,47.28291 0 0 1 -0.0188,0 39.528653,47.28291 0 0 1 -0.004,0 39.528653,47.28291 0 0 1 0.025,0 39.528653,47.28291 0 0 1 0.52154,0.032 z m -1.98619,-0.0553 v 0 a 39.528653,47.28291 0 0 1 -38.22533,-40.10194 115.5926,47.28291 0 0 1 -112.0307,40.12367 115.5926,47.28291 0 0 1 112.0307,40.12364 39.528653,47.28291 0 0 1 38.22533,-40.10195 v 0 a 39.528653,47.28291 0 0 1 -0.61177,-0.0212 39.528653,47.28291 0 0 1 0.61177,-0.0212 z m -154.82814,0 a 115.5926,47.28291 0 0 1 -1.70889,-0.0336 v 0.0506 a 115.5926,47.28291 0 0 1 -4.6e-4,0 v 0.06 a 115.5926,47.28291 0 0 1 1.70889,-0.0336 v 0 a 115.5926,47.28291 0 0 1 -1.40123,-0.0212 115.5926,47.28291 0 0 1 1.40168,-0.0212 z"
       id="path1803-9-9-7-7-8-4" />
    <path
       inkscape:connector-curvature="0"
       style="fill:#000000;fill-opacity:0.93989066;stroke:none;stroke-width:4.37998104;stroke-miterlimit:4;stroke-dasharray:none;stroke-opacity:1"
       d="m -362.81221,-393.64878 a 47.28291,39.528655 0 0 1 -0.0372,-0.003 47.28291,39.528655 0 0 1 -0.0305,0.003 v -0.003 a 47.28291,39.528655 0 0 0 0.032,-0.52292 47.28291,39.528655 0 0 0 0,-0.0188 47.28291,39.528655 0 0 0 0,-0.004 47.28291,39.528655 0 0 0 0,0.025 47.28291,39.528655 0 0 0 0.032,0.52154 z m -0.0553,-1.98619 v 0 a 47.28291,39.528655 0 0 0 -40.10194,-38.22533 47.28291,115.5926 0 0 0 40.12367,-112.0307 47.28291,115.5926 0 0 0 40.12364,112.0307 47.28291,39.528655 0 0 0 -40.10195,38.22533 v 0 a 47.28291,39.528655 0 0 0 -0.0212,-0.61177 47.28291,39.528655 0 0 0 -0.0212,0.61177 z m 0,-154.82815 a 47.28291,115.5926 0 0 0 -0.0336,-1.70888 h 0.0506 a 47.28291,115.5926 0 0 0 0,-4.6e-4 h 0.06 a 47.28291,115.5926 0 0 0 -0.0336,1.70889 v 0 a 47.28291,115.5926 0 0 0 -0.0212,-1.40123 47.28291,115.5926 0 0 0 -0.0212,1.40168 z"
       id="path1803-9-9-7-7-8-4-0" />
    <path
       inkscape:connector-curvature="0"
       style="fill:#000000;fill-opacity:0.93989066;stroke:none;stroke-width:4.37998104;stroke-miterlimit:4;stroke-dasharray:none;stroke-opacity:1"
       d="m -362.84791,-394.2652 a 39.528655,47.28291 0 0 0 0.003,0.0372 39.528655,47.28291 0 0 0 -0.003,0.0305 h 0.003 a 39.528655,47.28291 0 0 1 0.52292,-0.032 39.528655,47.28291 0 0 1 0.0188,0 39.528655,47.28291 0 0 1 0.004,0 39.528655,47.28291 0 0 1 -0.025,0 39.528655,47.28291 0 0 1 -0.52154,-0.032 z m 1.98619,0.0553 v 0 a 39.528655,47.28291 0 0 1 38.22533,40.10194 115.5926,47.28291 0 0 1 112.0307,-40.12367 115.5926,47.28291 0 0 1 -112.0307,-40.12364 39.528655,47.28291 0 0 1 -38.22533,40.10195 v 0 a 39.528655,47.28291 0 0 1 0.61177,0.0212 39.528655,47.28291 0 0 1 -0.61177,0.0212 z m 154.82814,0 a 115.5926,47.28291 0 0 1 1.70889,0.0336 v -0.0506 a 115.5926,47.28291 0 0 1 4.6e-4,0 v -0.06 a 115.5926,47.28291 0 0 1 -1.70889,0.0336 v 0 a 115.5926,47.28291 0 0 1 1.40123,0.0212 115.5926,47.28291 0 0 1 -1.40168,0.0212 z"
       id="path1803-9-9-7-7-8-4-2" />
    <path
       inkscape:connector-curvature="0"
       style="fill:#000000;fill-opacity:0.93989066;stroke:none;stroke-width:4.37998104;stroke-miterlimit:4;stroke-dasharray:none;stroke-opacity:1"
       d="m -362.79363,-394.31948 a 47.28291,39.528655 0 0 1 0.0372,0.003 47.28291,39.528655 0 0 1 0.0305,-0.003 v 0.003 a 47.28291,39.528655 0 0 0 -0.032,0.52292 47.28291,39.528655 0 0 0 0,0.0188 47.28291,39.528655 0 0 0 0,0.004 47.28291,39.528655 0 0 0 0,-0.025 47.28291,39.528655 0 0 0 -0.032,-0.52154 z m 0.0553,1.98619 v 0 a 47.28291,39.528655 0 0 0 40.10194,38.22533 47.28291,115.5926 0 0 0 -40.12367,112.0307 47.28291,115.5926 0 0 0 -40.12364,-112.0307 47.28291,39.528655 0 0 0 40.10195,-38.22533 v 0 a 47.28291,39.528655 0 0 0 0.0212,0.61177 47.28291,39.528655 0 0 0 0.0212,-0.61177 z m 0,154.82815 a 47.28291,115.5926 0 0 0 0.0336,1.70888 h -0.0506 a 47.28291,115.5926 0 0 0 0,4.6e-4 h -0.06 a 47.28291,115.5926 0 0 0 0.0336,-1.70889 v 0 a 47.28291,115.5926 0 0 0 0.0212,1.40123 47.28291,115.5926 0 0 0 0.0212,-1.40168 z"
       id="path1803-9-9-7-7-8-4-0-5" />
    <g
       id="g1031"
       transform="matrix(3.0388327,0,0,3.0388327,80.927997,-809.47786)"
       style="fill:#ffffff;fill-opacity:0.93989066;stroke:none;stroke-opacity:1"
       inkscape:export-xdpi="96"
       inkscape:export-ydpi="96">
      <path
         id="path1803-9-9-7-7-8-4-3"
         d="m -312.13489,426.67308 a 4.2672652,5.1043659 0 0 0 -3.2e-4,-0.004 4.2672652,5.1043659 0 0 0 3.2e-4,-0.003 h -3.2e-4 a 4.2672652,5.1043659 0 0 1 -0.0565,0.003 4.2672652,5.1043659 0 0 1 -0.002,0 4.2672652,5.1043659 0 0 1 -4.3e-4,0 4.2672652,5.1043659 0 0 1 0.003,0 4.2672652,5.1043659 0 0 1 0.0563,0.003 z m -0.21441,-0.006 v 0 a 4.2672652,5.1043659 0 0 1 -4.12657,-4.32915 12.478651,5.1043659 0 0 1 -12.09413,4.3315 12.478651,5.1043659 0 0 1 12.09413,4.33149 4.2672652,5.1043659 0 0 1 4.12657,-4.32915 v 0 a 4.2672652,5.1043659 0 0 1 -0.066,-0.002 4.2672652,5.1043659 0 0 1 0.066,-0.002 z m -16.71428,0 a 12.478651,5.1043659 0 0 1 -0.18448,-0.004 v 0.005 a 12.478651,5.1043659 0 0 1 -5e-5,0 v 0.006 a 12.478651,5.1043659 0 0 1 0.18448,-0.004 v 0 a 12.478651,5.1043659 0 0 1 -0.15127,-0.002 12.478651,5.1043659 0 0 1 0.15132,-0.002 z"
         style="fill:#ffffff;fill-opacity:0.93989066;stroke:none;stroke-width:0.47283524;stroke-miterlimit:4;stroke-dasharray:none;stroke-opacity:1"
         inkscape:connector-curvature="0" />
      <path
         id="path1803-9-9-7-7-8-4-0-4"
         d="m -312.14075,426.67894 a 5.1043659,4.2672652 0 0 1 -0.004,-3.2e-4 5.1043659,4.2672652 0 0 1 -0.003,3.2e-4 v -3.2e-4 a 5.1043659,4.2672652 0 0 0 0.003,-0.0565 5.1043659,4.2672652 0 0 0 0,-0.002 5.1043659,4.2672652 0 0 0 0,-4.3e-4 5.1043659,4.2672652 0 0 0 0,0.003 5.1043659,4.2672652 0 0 0 0.003,0.0563 z m -0.006,-0.21442 v 0 a 5.1043659,4.2672652 0 0 0 -4.32915,-4.12656 5.1043659,12.478651 0 0 0 4.3315,-12.09413 5.1043659,12.478651 0 0 0 4.33149,12.09413 5.1043659,4.2672652 0 0 0 -4.32915,4.12656 v 0 a 5.1043659,4.2672652 0 0 0 -0.002,-0.066 5.1043659,4.2672652 0 0 0 -0.002,0.066 z m 0,-16.71427 a 5.1043659,12.478651 0 0 0 -0.004,-0.18448 h 0.005 a 5.1043659,12.478651 0 0 0 0,-5e-5 h 0.006 a 5.1043659,12.478651 0 0 0 -0.004,0.18448 v 0 a 5.1043659,12.478651 0 0 0 -0.002,-0.15127 5.1043659,12.478651 0 0 0 -0.002,0.15132 z"
         style="fill:#ffffff;fill-opacity:0.93989066;stroke:none;stroke-width:0.47283524;stroke-miterlimit:4;stroke-dasharray:none;stroke-opacity:1"
         inkscape:connector-curvature="0" />
      <path
         id="path1803-9-9-7-7-8-4-2-5"
         d="m -312.1446,426.6124 a 4.2672652,5.1043659 0 0 0 3.2e-4,0.004 4.2672652,5.1043659 0 0 0 -3.2e-4,0.003 h 3.2e-4 a 4.2672652,5.1043659 0 0 1 0.0564,-0.003 4.2672652,5.1043659 0 0 1 0.002,0 4.2672652,5.1043659 0 0 1 4.3e-4,0 4.2672652,5.1043659 0 0 1 -0.003,0 4.2672652,5.1043659 0 0 1 -0.0563,-0.003 z m 0.21441,0.006 v 0 a 4.2672652,5.1043659 0 0 1 4.12657,4.32915 12.478651,5.1043659 0 0 1 12.09413,-4.3315 12.478651,5.1043659 0 0 1 -12.09413,-4.3315 4.2672652,5.1043659 0 0 1 -4.12657,4.32916 v 0 a 4.2672652,5.1043659 0 0 1 0.066,0.002 4.2672652,5.1043659 0 0 1 -0.066,0.002 z m 16.71428,0 a 12.478651,5.1043659 0 0 1 0.18448,0.004 v -0.005 -0.006 a 12.478651,5.1043659 0 0 1 -0.18448,0.004 v 0 a 12.478651,5.1043659 0 0 1 0.15127,0.002 12.478651,5.1043659 0 0 1 -0.15132,0.002 z"
         style="fill:#ffffff;fill-opacity:0.93989066;stroke:none;stroke-width:0.47283524;stroke-miterlimit:4;stroke-dasharray:none;stroke-opacity:1"
         inkscape:connector-curvature="0" />
      <path
         id="path1803-9-9-7-7-8-4-0-5-4"
         d="m -312.13874,426.60654 a 5.1043659,4.2672652 0 0 1 0.004,3.2e-4 5.1043659,4.2672652 0 0 1 0.003,-3.2e-4 v 3.2e-4 a 5.1043659,4.2672652 0 0 0 -0.003,0.0565 5.1043659,4.2672652 0 0 0 0,0.002 5.1043659,4.2672652 0 0 0 0,4.3e-4 5.1043659,4.2672652 0 0 0 0,-0.003 5.1043659,4.2672652 0 0 0 -0.003,-0.0563 z m 0.006,0.21441 v 0 a 5.1043659,4.2672652 0 0 0 4.32915,4.12657 5.1043659,12.478651 0 0 0 -4.3315,12.09413 5.1043659,12.478651 0 0 0 -4.33149,-12.09413 5.1043659,4.2672652 0 0 0 4.32915,-4.12657 v 0 a 5.1043659,4.2672652 0 0 0 0.002,0.0661 5.1043659,4.2672652 0 0 0 0.002,-0.0661 z m 0,16.71428 a 5.1043659,12.478651 0 0 0 0.004,0.18448 h -0.005 -0.006 a 5.1043659,12.478651 0 0 0 0.004,-0.18448 v 0 a 5.1043659,12.478651 0 0 0 0.002,0.15127 5.1043659,12.478651 0 0 0 0.002,-0.15132 z"
         style="fill:#ffffff;fill-opacity:0.93989066;stroke:none;stroke-width:0.47283524;stroke-miterlimit:4;stroke-dasharray:none;stroke-opacity:1"
         inkscape:connector-curvature="0" />
    </g>
  </g>
</svg>
